<svg xmlns="http://www.w3.org/2000/svg" width="900" height="1000" viewBox="0 0 900 1000" fill="none">
  <defs>
    <linearGradient id="qbg" x1="0" y1="0" x2="1" y2="1">
      <stop stop-color="#786450"/>
      <stop offset="1" stop-color="#D8C0A0"/>
    </linearGradient>
  </defs>
  <rect width="900" height="1000" fill="url(#qbg)"/>
  <rect y="650" width="900" height="350" fill="#B79A79" opacity="0.45"/>
  <path d="M320 960C340 800 366 636 405 474C419 418 440 384 484 384C530 384 555 418 570 475C612 636 642 799 662 960H320Z" fill="#F3F5F7"/>
  <circle cx="489" cy="294" r="102" fill="#C79066"/>
  <path d="M388 294C388 199 434 146 490 146C546 146 594 199 594 294C594 322 590 349 581 371H401C392 350 388 323 388 294Z" fill="#7C5237"/>
  <circle cx="452" cy="292" r="11" fill="#34251A"/>
  <circle cx="525" cy="292" r="11" fill="#34251A"/>
  <path d="M455 353C477 367 498 367 518 352" stroke="#864531" stroke-width="10" stroke-linecap="round"/>
  <rect x="428" y="490" width="122" height="44" rx="22" fill="#CDE5EF"/>
  <rect x="84" y="180" width="200" height="320" rx="10" fill="#5F4F41" opacity="0.34"/>
  <rect x="110" y="560" width="170" height="120" rx="10" fill="#8D6E56" opacity="0.38"/>
</svg>
